<svg width="216" height="122" viewBox="0 0 216 122" fill="none" xmlns="http://www.w3.org/2000/svg">
<g clip-path="url(#clip0_175_499)">
<path d="M53.0749 29.371C53.0749 39.0959 46.6167 49.1327 38.6594 50.611C37.0938 50.9716 35.4646 50.95 33.9091 50.548C32.3537 50.146 30.9176 49.3753 29.7217 48.3011C29.154 49.1581 28.5011 49.9553 27.7728 50.6804C27.0803 51.5011 26.1915 52.1328 25.1894 52.5168C24.8434 52.5861 24.6243 52.5168 24.6243 52.1241C24.6572 51.8296 24.7919 51.5558 25.005 51.3502C25.419 50.8079 25.7745 50.2233 26.0659 49.6062C27.4728 46.7881 27.8881 45.3097 30.1715 36.1738C32.478 26.7839 33.8619 24.1737 38.1289 20.3507C29.7564 21.9446 23.0559 28.1468 23.0559 34.349C23.0559 36.8322 24.0824 37.9179 25.1549 38.2297C25.6047 38.3337 25.766 38.4954 25.766 38.738C25.766 38.9805 25.57 39.2692 25.1087 39.3616C24.4428 39.4087 23.7744 39.3131 23.1483 39.081C22.5222 38.8489 21.9528 38.4858 21.478 38.0157C21.0032 37.5457 20.6339 36.9795 20.395 36.3551C20.156 35.7308 20.0528 35.0627 20.0922 34.3953C20.0922 27.4654 28.6146 20.6047 38.198 18.8261C46.9512 17.2553 53.0749 20.2583 53.0749 29.371ZM49.2347 29.7291C49.2347 22.9148 46.0748 19.5884 39.8819 20.1543C37.1717 23.6193 36.2607 26.2065 33.8273 36.1162C32.4204 41.8102 31.5207 44.8362 30.552 46.8805C31.4788 47.7799 32.6143 48.4344 33.8563 48.7852C35.0984 49.136 36.4082 49.1721 37.6676 48.8901C44.4487 47.6312 49.1885 38.3799 49.1885 29.7291H49.2347Z" fill="white"/>
<path d="M68.5975 27.8465C68.5975 28.782 68.1824 29.706 67.8018 29.7753C67.6404 29.7753 67.5366 29.6713 67.2599 29.371C67.0694 29.1199 66.8089 28.931 66.5112 28.8282C66.2135 28.7254 65.8921 28.7133 65.5876 28.7935C63.4195 29.1977 60.9746 32.7205 59.6945 37.9525C58.7027 42.0065 58.5412 42.4339 57.6417 43.0575C57.0471 43.5079 56.3747 43.8446 55.6582 44.0508C55.3583 44.0508 55.2084 43.9814 55.2084 43.6696C55.2848 43.0556 55.4122 42.4492 55.589 41.8563C57.1113 35.9082 57.8955 32.6165 58.4375 30.3066C58.5166 29.475 58.8791 28.6961 59.4639 28.1005C60.1455 27.4475 60.9713 26.9648 61.8742 26.6915C62.1394 26.6915 62.3239 26.6916 62.3239 27.0381C62.2242 27.6049 62.0737 28.1614 61.8742 28.7011C61.6435 29.602 61.3437 30.6992 61.0323 32.0044C62.52 29.0476 64.7227 26.1602 66.6717 25.8021C68.1017 25.5365 68.5975 26.7608 68.5975 27.8465Z" fill="white"/>
<path d="M68.5168 38.5992C68.776 36.1577 69.2585 33.7451 69.9584 31.3921C70.9963 27.5113 71.2615 26.5758 71.9073 25.9175C72.626 25.1887 73.5134 24.6491 74.4906 24.3467C74.7558 24.3467 74.9519 24.3468 74.9519 24.6933C74.8462 25.2637 74.6919 25.8239 74.4906 26.3679C74.1446 27.5229 73.6487 29.3132 73.049 31.6694C72.4377 33.7563 71.9905 35.8879 71.7114 38.0447C71.7114 38.934 72.138 39.1997 72.6223 39.1997C73.1841 39.0251 73.6688 38.6621 73.9948 38.1718C74.26 37.8022 74.4215 37.7445 74.5714 37.7099C74.6132 37.7009 74.6565 37.7017 74.6979 37.7123C74.7394 37.7229 74.7779 37.7429 74.8103 37.7709C74.8427 37.7989 74.8682 37.8339 74.8847 37.8734C74.9013 37.9129 74.9086 37.9559 74.9059 37.9986C74.891 38.2445 74.798 38.4792 74.6405 38.6685C73.9183 39.9033 72.7499 40.813 71.3769 41.2093C69.6239 41.4865 68.5168 40.4587 68.5168 38.5992ZM72.8531 20.2696C72.8601 19.5849 73.0887 18.921 73.5046 18.3774C73.9205 17.8339 74.5012 17.4401 75.1595 17.2552C75.3379 17.2084 75.5249 17.2052 75.7048 17.2457C75.8847 17.2862 76.0523 17.3693 76.1935 17.4881C76.3347 17.6069 76.4454 17.7579 76.5163 17.9284C76.5873 18.0989 76.6163 18.2839 76.6011 18.468C76.6075 19.1397 76.3963 19.7954 75.9991 20.3367C75.602 20.8781 75.0403 21.2761 74.3984 21.4709C74.2147 21.5385 74.017 21.5583 73.8237 21.5282C73.6304 21.4982 73.4478 21.4194 73.2933 21.2993C73.1387 21.1791 73.0172 21.0216 72.9402 20.8415C72.8632 20.6614 72.8332 20.4646 72.8531 20.2696Z" fill="white"/>
<path d="M92.5965 34.7069C92.5537 34.9413 92.4503 35.1604 92.2966 35.3422C91.5699 36.5779 90.3977 37.4872 89.0215 37.8831C87.2339 38.2181 86.1384 37.2595 86.1384 35.3654C86.348 33.2635 86.8166 31.1958 87.5337 29.2094C88.059 27.7935 88.3925 26.3134 88.5255 24.8089C88.5255 24.0697 88.2257 23.6539 87.5799 23.7809C85.827 24.1043 82.2864 28.2853 81.1447 33.0207C80.003 37.7561 79.8532 38.4607 78.9421 39.0843C78.3619 39.565 77.6854 39.9155 76.9584 40.1123C76.6586 40.1662 76.5087 40.0392 76.5087 39.7312C76.5953 39.1342 76.7225 38.5437 76.8893 37.964C78.4116 31.9813 79.1957 28.7242 79.7032 26.5066C79.793 25.6406 80.166 24.8285 80.7642 24.1967C81.434 23.516 82.2563 23.0053 83.1629 22.7069C83.4282 22.7069 83.6242 22.7068 83.6242 23.0417C83.5216 23.6128 83.3672 24.1735 83.1629 24.7165C82.9323 25.5019 82.7131 26.4258 82.4364 27.4883C84.0048 24.7164 86.5535 22.0715 88.8369 21.7135C90.7398 21.3554 91.8353 22.3141 91.8353 24.37C91.6546 26.2116 91.2319 28.0213 90.5783 29.7522C89.9736 31.3758 89.5669 33.0666 89.3674 34.7879C89.3674 35.6772 89.7826 35.9428 90.3131 35.9428C90.888 35.7509 91.3829 35.373 91.72 34.8687C91.9968 34.5568 92.066 34.4991 92.262 34.4644C92.4581 34.4298 92.5965 34.4759 92.5965 34.7069Z" fill="white"/>
<path d="M115.731 2.12525C115.734 2.2392 115.698 2.35078 115.628 2.44121C115.559 2.53164 115.461 2.59549 115.35 2.62195C115.2 2.62195 115.004 2.52956 114.785 2.33321C114.347 1.91074 113.81 1.60727 113.222 1.45161C112.635 1.29596 112.018 1.29327 111.429 1.44386C107.473 2.18304 104.625 6.06374 102.757 13.4094L100.058 24.1045C101.799 21.3325 104.463 18.8262 106.793 18.3296C108.615 17.9946 109.492 18.8839 109.492 20.2699C109.492 23.0996 106.032 26.3914 102.226 28.4819C103.026 29.0982 103.677 29.8879 104.129 30.7918C104.844 32.0507 105.386 32.8475 106.251 32.6858C106.803 32.536 107.28 32.1862 107.589 31.7041C107.819 31.427 107.935 31.3693 108.119 31.3346C108.163 31.3198 108.209 31.3158 108.255 31.3228C108.301 31.3297 108.344 31.3475 108.381 31.3747C108.418 31.4018 108.449 31.4374 108.469 31.4787C108.49 31.52 108.5 31.5656 108.5 31.6118C108.496 31.86 108.402 32.0983 108.234 32.2816C107.868 32.932 107.372 33.4996 106.777 33.9488C106.181 34.398 105.5 34.719 104.775 34.8919C102.468 35.3077 101.615 34.0834 100.819 32.016C100.563 31.174 100.104 30.4084 99.4813 29.787C99.1469 29.9256 98.8009 30.0641 98.4549 30.1681C97.3017 34.6725 97.1634 35.2153 96.333 35.7928C95.7371 36.2642 95.0498 36.6064 94.3148 36.7976C94.0496 36.7976 93.8535 36.7976 93.8535 36.4511C93.9584 35.8356 94.097 35.2265 94.2687 34.6263L99.7121 12.9589C101.73 5.07045 106.113 0.889515 110.633 0.0463828C113.978 -0.496455 115.731 1.58241 115.731 2.12525ZM98.7779 29.0015C103.183 27.1305 106.389 23.3191 106.389 21.0784C106.408 20.9601 106.396 20.8391 106.354 20.7269C106.312 20.6148 106.241 20.5155 106.15 20.4388C106.058 20.362 105.948 20.3104 105.83 20.2889C105.712 20.2674 105.591 20.2767 105.478 20.3161C103.818 20.6511 99.9311 24.5895 98.7779 29.0015Z" fill="white"/>
<path d="M139.776 7.8191C140.456 6.90142 140.816 5.78562 140.802 4.64292C140.802 2.62172 139.776 1.3397 136.766 1.90564C134.646 2.27309 132.714 3.34893 131.283 4.95775C129.853 6.56656 129.009 8.61331 128.889 10.7642C128.889 12.9702 129.881 14.2292 131.853 14.6335C132.464 14.4833 133.075 14.3331 133.721 14.206C135.393 13.8942 136.154 14.0328 136.154 14.6911C136.154 15.3495 135.589 15.7653 134.217 16.0194C133.213 16.1979 132.189 16.2445 131.173 16.158C126.456 18.2716 123.1 22.88 123.1 27.6038C123.1 31.4845 125.406 33.6559 129.869 32.8243C134.332 31.9928 137.215 28.8627 139.095 26.1139C139.81 25.1668 140.122 24.8318 140.422 24.7741C140.488 24.7543 140.558 24.7514 140.625 24.7656C140.693 24.7798 140.756 24.8107 140.809 24.8554C140.861 24.9001 140.902 24.9573 140.927 25.0218C140.952 25.0862 140.961 25.1559 140.952 25.2245C140.792 25.8879 140.493 26.5099 140.076 27.0495C138.811 29.0806 137.148 30.8339 135.188 32.2036C133.227 33.5733 131.01 34.5309 128.67 35.0187C123.457 35.9889 118.925 34.1178 118.925 28.6548C118.925 23.5382 122.996 18.364 128.889 15.7191C127.816 15.4553 126.862 14.8385 126.18 13.9673C125.499 13.0962 125.129 12.0211 125.13 10.9144C125.13 6.29446 130.561 1.67456 136.962 0.519582C141.448 -0.312 143.766 1.03929 143.766 3.52249C143.766 6.27133 140.802 8.68536 139.857 8.85861C139.58 8.85861 139.43 8.7893 139.43 8.5583C139.456 8.27927 139.579 8.01805 139.776 7.8191Z" fill="white"/>
<path d="M158.746 22.3951C158.732 22.641 158.639 22.8757 158.481 23.0649C157.757 24.3029 156.584 25.2133 155.206 25.606C153.465 25.9409 152.357 24.9013 152.357 23.0418C152.339 22.7803 152.339 22.518 152.357 22.2565C151.296 24.3124 149.624 26.6453 147.226 27.0842C144.827 27.5231 143.305 26.1141 143.305 23.0073C143.305 17.5442 147.917 10.7644 152.357 9.93286C153.995 9.63257 154.837 10.441 155.056 11.3303C155.21 10.9433 155.433 10.5873 155.714 10.2794C156.436 9.57632 157.325 9.06772 158.297 8.80101C158.677 8.72016 158.827 8.89334 158.827 9.15898C158.779 9.49574 158.69 9.8255 158.562 10.1408C157.754 12.3865 157.092 14.6819 156.579 17.0129C156.062 18.7966 155.718 20.626 155.552 22.4759C155.552 23.3768 155.933 23.6886 156.428 23.6308C157.008 23.4472 157.505 23.0675 157.835 22.5568C158.101 22.2334 158.216 22.1757 158.377 22.141C158.418 22.1235 158.463 22.1166 158.508 22.121C158.552 22.1255 158.595 22.1411 158.632 22.1664C158.668 22.1917 158.698 22.226 158.718 22.2659C158.738 22.3059 158.748 22.3504 158.746 22.3951ZM154.491 12.728C154.491 11.7116 153.961 11.0764 152.819 11.2958C149.613 11.8848 146.534 18.5375 146.534 22.9957C146.534 24.8206 147.145 25.6406 148.252 25.4327C150.339 25.04 152.542 20.9513 153.534 17.2785C154.01 15.8009 154.32 14.2746 154.456 12.728H154.491Z" fill="white"/>
<path d="M160.2 21.344C160.279 20.5105 160.615 19.7221 161.16 19.0872C161.705 18.4523 162.433 18.0021 163.244 17.7983C163.579 17.7983 163.694 17.8676 163.694 18.0639C163.676 18.2121 163.625 18.3543 163.544 18.4797C163.227 19.0929 163.069 19.7759 163.083 20.4662C163.083 21.9331 163.89 22.7762 165.389 22.499C166.152 22.3553 166.838 21.9411 167.321 21.3323C167.804 20.7236 168.052 19.961 168.019 19.1842C168.019 17.6366 167.061 16.8743 165.574 15.9965C164.086 15.1187 162.99 14.3911 162.99 12.3699C162.99 10.0599 165.297 7.48427 168.757 6.84904C170.971 6.43325 172.793 6.95302 172.793 8.61618C172.712 9.2967 172.419 9.93427 171.955 10.4382C171.491 10.9421 170.88 11.2867 170.21 11.4228C169.945 11.4228 169.864 11.4228 169.864 11.2496C169.86 11.1141 169.887 10.9797 169.945 10.8569C170.092 10.4457 170.166 10.0118 170.164 9.5749C170.164 8.41993 169.633 7.84238 168.422 8.07338C167.789 8.13913 167.203 8.43765 166.777 8.91127C166.351 9.38489 166.115 9.99992 166.116 10.6374C166.116 11.8732 166.958 12.5316 168.365 13.4325C169.772 14.3334 171.259 15.3843 171.259 17.4286C171.259 20.2237 168.953 23.0534 165.17 23.7579C162.206 24.3123 160.2 23.2266 160.2 21.344Z" fill="white"/>
<path d="M190.103 3.31485C189.994 3.86192 189.84 4.39895 189.642 4.92028C189.146 6.4795 188.489 8.65078 186.632 16.4007C183.783 27.7772 181.535 33.0439 176.022 34.0718C172.943 34.6378 171.19 33.298 171.19 31.1613C171.19 27.604 175.03 24.7165 176.022 24.5317C176.322 24.474 176.483 24.601 176.483 24.7974C176.483 24.9937 176.322 25.2132 176.022 25.5366C174.683 26.8742 173.897 28.6681 173.819 30.5607C173.819 32.1545 174.615 33.0555 176.126 32.7783C178.79 32.2816 180.624 28.8398 183.587 16.5047C182.377 18.7107 180.577 20.9051 178.409 21.3093C176.437 21.6674 174.95 20.5817 174.95 18.1447C175.135 15.9558 175.592 13.7986 176.31 11.7231C176.773 10.398 177.094 9.02737 177.268 7.63445C177.304 7.15538 177.196 6.67649 176.956 6.26009C176.873 6.11501 176.821 5.95338 176.806 5.78651C176.806 5.50932 177.037 5.313 177.452 5.23215C179.009 4.94341 180.381 5.50929 180.381 7.63445C180.23 9.23332 179.885 10.8079 179.355 12.3237C178.749 14.0707 178.361 15.8863 178.202 17.7289C178.202 18.8839 178.698 19.4614 179.54 19.2997C181.592 18.9185 183.945 14.6105 185.052 10.337C186.205 5.8211 186.424 5.11656 186.955 4.56217C187.72 3.85055 188.628 3.31105 189.619 2.97986C189.884 2.93366 190.103 3.01456 190.103 3.31485Z" fill="white"/>
<path d="M195.501 15.4883C195.501 18.318 193.102 21.1362 191.314 22.4182C191.039 22.6368 190.731 22.812 190.403 22.9379C190.138 22.9379 189.942 22.8686 189.942 22.6376C189.954 22.5235 189.991 22.4134 190.051 22.3156C190.111 22.2177 190.192 22.1344 190.288 22.0716C191.672 21.0502 192.749 19.6679 193.402 18.0755H193.183C192.951 18.1528 192.703 18.1704 192.463 18.1265C192.222 18.0827 191.997 17.9788 191.807 17.8245C191.617 17.6702 191.469 17.4704 191.377 17.2438C191.285 17.0171 191.252 16.7708 191.28 16.5277C191.274 15.8274 191.51 15.1467 191.947 14.5998C192.383 14.053 192.995 13.6733 193.678 13.5248C195.005 13.34 195.501 14.2179 195.501 15.4883Z" fill="white"/>
<path d="M60.4787 57.8759C60.4994 58.0607 60.454 58.2469 60.3505 58.4013C60.247 58.5557 60.0923 58.6683 59.9136 58.7191C59.7625 58.7395 59.6085 58.7262 59.463 58.6803C59.3175 58.6344 59.1839 58.557 59.0717 58.4534C58.7309 58.2416 58.3516 58.0998 57.9556 58.0364C57.5596 57.9729 57.1549 57.9891 56.7652 58.0839C52.083 58.9501 49.1538 64.748 46.386 74.6115C44.2986 82.0611 42.3151 90.4462 41.012 96.9487C40.5507 99.4319 40.1354 100.887 39.3512 101.026C38.567 101.164 38.3595 100.737 37.9443 99.328C36.2467 94.1511 34.2443 89.0796 31.9475 84.1401C30.0669 80.1722 28.6989 75.9805 27.8765 71.6663C26.262 77.0138 24.4168 84.1054 22.8715 90.6541C19.6424 104.364 14.7987 108.972 9.21697 110.023C7.4206 110.406 5.54622 110.108 3.95685 109.186C2.36748 108.264 1.17625 106.785 0.613823 105.034C0.324519 104.41 0.163667 103.734 0.140954 103.047C0.104949 102.799 0.158403 102.547 0.291585 102.335C0.424767 102.124 0.628942 101.966 0.867503 101.892C1.23654 101.823 1.4442 101.996 1.81324 102.839C2.80503 105.149 4.7309 107.286 8.5366 106.581C12.6075 105.819 17.3474 102.92 20.6341 89.7301C22.5016 81.7254 24.7804 73.8225 27.4614 66.0531C26.2208 66.9023 24.8195 67.488 23.3442 67.774C22.2817 67.9933 21.2 68.1056 20.1152 68.109C18.9236 68.1912 17.7376 68.3416 16.5631 68.5595C10.7969 69.622 6.86445 73.6529 6.86445 78.4807C6.77262 79.7415 7.13176 80.994 7.87762 82.014C8.62348 83.0339 9.70728 83.7549 10.9353 84.0477C11.5119 84.1979 11.7657 84.3133 11.7657 84.7407C11.7657 85.168 11.4543 85.3759 10.9353 85.4799C9.00938 85.8379 4.25811 83.8513 4.25811 78.3305C4.25811 71.5277 9.57451 65.9724 16.4594 64.7019C18.1941 64.3597 19.968 64.2625 21.7296 64.4131C22.9576 64.585 24.2036 64.585 25.4316 64.4131C26.9809 64.2047 28.4504 63.6001 29.6986 62.6576C30.0622 62.2543 30.535 61.9654 31.0595 61.826C31.1559 61.7904 31.26 61.7806 31.3613 61.7978C31.4626 61.815 31.5576 61.8584 31.6369 61.9239C31.7163 61.9893 31.7771 62.0744 31.8133 62.1707C31.8496 62.267 31.86 62.3711 31.8436 62.4727C31.8218 62.9111 31.7678 63.3474 31.6821 63.7778C31.535 64.7173 31.4847 65.6693 31.5322 66.619C31.636 69.518 33.3544 74.5654 35.5916 79.8898C37.4714 84.2672 38.8207 87.6165 40.2046 91.6127C41.3579 85.988 42.6496 80.3286 44.1718 74.5768C47.2395 62.7037 50.5262 55.8778 56.1079 54.8384C56.5972 54.7025 57.1104 54.6761 57.611 54.7612C58.1116 54.8463 58.5873 55.0408 59.0045 55.3307C59.4217 55.6206 59.7699 55.999 60.0247 56.4388C60.2795 56.8787 60.4346 57.3693 60.4787 57.8759Z" fill="white"/>
<path d="M50.3417 88.0321C50.3417 80.5478 55.6581 72.4515 62.4392 71.1926C66.81 70.3726 69.3586 72.8788 69.3586 77.2331C69.3586 84.7173 64.296 93.0332 57.4688 94.3037C53.3402 95.0659 50.3417 92.8137 50.3417 88.0321ZM64.9418 76.3553C64.9418 74.0454 64.1576 72.6709 62.3354 73.0174C57.8493 73.849 54.8278 82.6962 54.8278 88.2632C54.8278 91.5548 55.981 92.7329 57.7916 92.3864C62.2085 91.5663 64.9187 82.1995 64.9187 76.3553H64.9418Z" fill="white"/>
<path d="M102.341 68.9866C102.341 76.1012 95.6179 87.2236 89.8287 88.2977C86.8072 88.8637 84.616 87.2467 84.616 83.5855V83.2852C83.1052 86.6 80.6604 90.0186 77.4775 90.6077C74.6059 91.1505 72.7837 89.3604 72.7837 86.3343C72.7837 84.2092 73.7756 80.8366 74.7674 77.6258C75.4022 75.755 75.82 73.8173 76.0128 71.8509C76.0943 71.1758 75.9482 70.4929 75.5977 69.9106C75.4681 69.759 75.3947 69.5672 75.39 69.3677C75.39 68.9981 75.7014 68.6747 76.2781 68.5592C78.4116 68.1666 80.2913 68.9288 80.2913 71.8509C80.125 74.0764 79.6676 76.2704 78.9306 78.3765C78.0951 80.8587 77.5192 83.4211 77.2122 86.0225C77.2122 87.4546 77.8926 88.0668 78.8382 87.8935C81.2831 87.4431 84.2585 82.1186 85.7577 76.3438L86.5419 73.1676C86.9747 71.5889 87.3059 69.984 87.5337 68.3628C87.5553 68.1426 87.6481 67.9355 87.798 67.773C87.9478 67.6104 88.1466 67.5012 88.364 67.4621C89.5173 67.2426 91.6507 68.0279 91.6507 69.5178C91.6143 70.4887 91.4396 71.4494 91.1318 72.3707C90.8666 73.2139 90.659 74.1031 90.4515 74.9347L89.9786 76.8289C89.3168 79.0444 88.9295 81.3331 88.8253 83.6433C88.8253 85.3411 89.4019 86.1842 90.8089 85.9532C94.2686 85.3064 98.1666 75.5584 98.1666 68.975C98.2002 67.8817 97.9833 66.7952 97.5324 65.7988C97.4085 65.622 97.3365 65.4139 97.3247 65.1982C97.3247 64.7709 97.59 64.4591 98.2128 64.3436C99.9311 63.974 102.341 65.1636 102.341 68.9866Z" fill="white"/>
<path d="M125.487 78.1803C125.457 78.5124 125.333 78.8291 125.13 79.0927C124.13 80.778 122.525 82.0174 120.643 82.5576C118.245 82.9965 116.734 81.5874 116.734 79.0349C116.71 78.6773 116.71 78.3185 116.734 77.9609C115.281 80.779 112.986 83.9667 109.699 84.5789C106.62 85.1448 104.325 83.2391 104.325 78.9888C104.325 71.5046 110.587 62.2186 116.734 61.0751C118.983 60.6594 120.124 61.7797 120.436 62.9924C120.632 62.4565 120.934 61.9655 121.324 61.5487C122.32 60.5851 123.541 59.8863 124.876 59.516C125.395 59.412 125.602 59.6429 125.602 60.0125C125.534 60.4725 125.41 60.9225 125.233 61.3523C124.126 64.4313 123.221 67.5796 122.523 70.777C121.485 75.2236 121.116 76.9907 121.116 78.2612C121.116 79.5317 121.635 79.9243 122.27 79.7972C123.062 79.5409 123.742 79.0188 124.195 78.3188C124.564 77.88 124.714 77.7991 124.933 77.7645C124.995 77.7151 125.072 77.6877 125.151 77.6865C125.23 77.6854 125.307 77.7106 125.371 77.7581C125.434 77.8057 125.48 77.8729 125.501 77.9493C125.522 78.0257 125.517 78.1069 125.487 78.1803ZM119.652 64.9212C119.652 63.5467 118.925 62.669 117.345 62.9578C112.963 63.7662 108.742 72.8906 108.742 79.0004C108.742 81.4951 109.584 82.6155 111.048 82.3267C113.908 81.7954 116.93 76.1937 118.291 71.1581C119.444 66.8731 119.652 65.8798 119.652 64.9212Z" fill="white"/>
<path d="M155.99 40.1239C155.99 40.4473 155.725 40.6551 155.356 40.9785C154.075 41.8828 153.066 43.121 152.438 44.5589C151.4 46.661 150.513 49.0518 147.283 62.4495C145.242 70.8923 144.885 72.6594 144.885 73.8375C144.885 75.0156 145.404 75.4892 146.13 75.3506C146.911 75.0786 147.586 74.5649 148.056 73.8838C148.379 73.5026 148.529 73.364 148.737 73.3294C148.798 73.3157 148.863 73.3171 148.924 73.3338C148.985 73.3504 149.041 73.3817 149.088 73.4248C149.134 73.468 149.169 73.5218 149.191 73.5816C149.212 73.6414 149.218 73.7055 149.209 73.7683C149.186 74.09 149.056 74.3947 148.84 74.6345C147.863 76.3568 146.254 77.629 144.354 78.1802C141.967 78.6191 140.444 77.1985 140.444 74.5998C140.416 74.2424 140.416 73.8833 140.444 73.5258C139.038 76.3439 136.639 79.601 133.525 80.1785C130.411 80.7559 128.047 78.804 128.047 74.6114C128.047 67.2311 134.309 57.7835 140.456 56.6401C142.543 56.2589 143.743 57.1482 144.1 58.3032C146.349 49.3406 146.972 47.2038 148.713 44.4435C150.101 42.0979 152.348 40.3867 154.975 39.6734C155.667 39.5464 155.99 39.7543 155.99 40.1239ZM143.42 60.6131C143.42 59.1809 142.693 58.3031 141.113 58.5457C136.685 59.3657 132.464 68.594 132.464 74.5998C132.464 77.0946 133.294 78.1571 134.771 77.8915C137.585 77.3602 140.664 71.8048 142.071 66.8153C143.155 62.7383 143.42 61.514 143.42 60.6131Z" fill="white"/>
<path d="M172.92 69.4255C172.895 69.7621 172.77 70.0836 172.562 70.3495C171.556 72.0286 169.954 73.2658 168.076 73.8144C165.678 74.2533 164.167 72.8327 164.167 70.3495C164.156 69.9905 164.175 69.6311 164.224 69.2753C162.76 72.0935 160.465 75.2812 157.178 75.8933C154.11 76.4592 151.816 74.5536 151.816 70.3033C151.816 62.819 158.066 53.533 164.224 52.3896C166.462 51.9738 167.603 53.0826 167.926 54.3069C168.12 53.7723 168.418 53.2816 168.803 52.8632C169.801 51.9019 171.021 51.2034 172.355 50.8304C172.874 50.7265 173.081 50.9574 173.081 51.327C173.012 51.7854 172.892 52.2347 172.724 52.6668C171.603 55.7425 170.694 58.8914 170.002 62.0914C168.964 66.5381 168.595 68.3052 168.595 69.5756C168.595 70.8461 169.126 71.2272 169.749 71.1001C170.546 70.8535 171.232 70.3345 171.686 69.6334C172.043 69.1945 172.205 69.1136 172.413 69.0674C172.47 69.0406 172.533 69.0295 172.595 69.0351C172.658 69.0406 172.718 69.0627 172.77 69.0991C172.821 69.1354 172.862 69.1847 172.889 69.2421C172.915 69.2994 172.926 69.3627 172.92 69.4255ZM167.084 56.1779C167.084 54.792 166.358 53.8679 164.778 54.2144C160.407 55.0229 156.175 64.1472 156.175 70.2455C156.175 72.7518 157.017 73.8721 158.481 73.5834C161.353 73.0521 164.374 67.4505 165.724 62.4148C166.877 58.0721 167.084 57.0788 167.084 56.1201V56.1779Z" fill="white"/>
<path d="M201.912 80.8251C201.912 84.9137 197.484 88.7597 196.435 88.9099C196.077 88.9792 195.858 88.8059 195.858 88.4826C195.937 88.0505 196.137 87.6498 196.435 87.3276C197.494 85.8706 198.045 84.1052 198.003 82.3035C198.003 79.0118 195.696 76.1474 189.238 76.6094C185.49 89.8338 181.42 98.1266 172.713 99.7089C167.973 100.587 164.951 97.8032 164.951 93.934C164.951 86.6577 173.866 77.9376 185.594 75.1772C186.424 71.9895 187.266 68.4437 188.097 64.6207C186.482 67.6352 183.98 70.6959 181.004 71.2503C178.294 71.7469 176.31 70.257 176.31 66.9191C176.568 63.9222 177.199 60.9693 178.19 58.1298C178.821 56.3099 179.258 54.4284 179.493 52.5166C179.536 51.8624 179.392 51.2096 179.078 50.634C178.959 50.4335 178.888 50.2083 178.871 49.9757C178.871 49.6061 179.182 49.3405 179.759 49.2365C181.892 48.8323 183.772 49.6061 183.772 52.5166C183.564 54.7063 183.092 56.8627 182.365 58.9383C181.532 61.3337 181.005 63.8251 180.797 66.3532C180.797 67.8893 181.477 68.6631 182.619 68.5014C185.433 67.9817 188.673 62.0683 190.184 56.2126C191.741 50.0335 192.052 49.0748 192.79 48.3009C193.84 47.3324 195.082 46.5964 196.435 46.1411C196.804 46.0718 197.057 46.1412 197.057 46.6031C196.915 47.3479 196.707 48.0785 196.435 48.7861C195.604 51.4425 194.716 54.5609 192.318 64.5284C191.487 67.9933 190.645 71.3658 189.815 74.4496C198.049 73.6757 201.912 76.7827 201.912 80.8251ZM185.018 77.3601C174.857 79.6701 167.5 87.4084 167.5 93.6799C167.5 96.7522 169.114 98.1612 172.297 97.5606C178.352 96.4519 181.731 89.5567 185.018 77.3717V77.3601Z" fill="white"/>
<path d="M198.153 63.6506C198.153 61.0982 200.713 59.0308 202.328 58.7882C202.801 58.6958 202.951 58.8806 202.951 59.1462C202.926 59.352 202.855 59.5495 202.743 59.7237C202.311 60.5617 202.097 61.4951 202.12 62.4379C202.12 64.4591 203.216 65.6256 205.349 65.233C206.395 65.0389 207.335 64.4724 207.997 63.6381C208.658 62.8038 208.996 61.758 208.947 60.6938C208.947 58.5687 207.644 57.5871 205.614 56.3166C203.781 55.1616 202.062 54.1105 202.062 51.3501C202.062 48.1047 205.188 44.6629 209.939 43.7851C212.96 43.2192 215.463 43.9237 215.463 46.2106C215.463 48.1163 213.48 49.7563 211.923 50.0566C211.554 50.0566 211.45 49.9758 211.45 49.8141C211.444 49.6277 211.48 49.4424 211.554 49.2713C211.765 48.7105 211.871 48.1152 211.865 47.5157C211.865 45.968 211.138 45.2057 209.466 45.4598C208.603 45.5448 207.802 45.9451 207.215 46.5842C206.628 47.2232 206.296 48.0564 206.283 48.9247C206.283 50.6225 207.436 51.5233 209.362 52.7592C211.288 53.995 213.33 55.4273 213.33 58.2339C213.33 62.0568 210.147 65.949 204.98 66.9076C200.863 67.693 198.153 66.2262 198.153 63.6506Z" fill="white"/>
<path d="M139.545 122L125.729 118.547L135.958 108.637L122.281 112.552L126.19 98.8429L116.296 109.087L112.836 95.2625L109.376 109.087L99.4813 98.8429L103.391 112.552L89.7134 108.637L99.9426 118.547L86.1383 122H139.545Z" fill="white"/>
</g>
<defs>
<clipPath id="clip0_175_499">
<rect width="215.299" height="122" fill="white" transform="translate(0.164062)"/>
</clipPath>
</defs>
</svg>
