<svg width="125" height="43" viewBox="0 0 125 43" fill="none" xmlns="http://www.w3.org/2000/svg">
<path d="M80.6614 18.9973L71.2698 16.6494L78.2275 9.91663L68.922 12.5754L71.5807 3.2698L64.8479 10.2275L62.5 0.835938L60.1521 10.2275L53.4193 3.2698L56.078 12.5754L46.7725 9.91663L53.7302 16.6494L44.3386 18.9973H80.6614Z" fill="#101010"/>
<path d="M2.72491 31.7289V42.3572H0V25.5186L11.3757 36.3254V25.7037H14.1005V42.5424L2.72491 31.7289Z" fill="#101010"/>
<path d="M16.7923 34.037C16.7826 32.916 16.9963 31.8042 17.4211 30.7666C17.8459 29.7291 18.4731 28.7866 19.2661 27.9942C20.0592 27.2018 21.0022 26.5753 22.04 26.1514C23.0779 25.7274 24.1898 25.5145 25.3108 25.5251C26.4319 25.5136 27.5438 25.7259 28.5817 26.1496C29.6196 26.5733 30.5626 27.1998 31.3553 27.9926C32.148 28.7853 32.7746 29.7282 33.1983 30.7661C33.6219 31.804 33.8342 32.916 33.8227 34.037C33.8342 35.158 33.6219 36.27 33.1983 37.3079C32.7746 38.3459 32.148 39.2887 31.3553 40.0814C30.5626 40.8742 29.6196 41.5007 28.5817 41.9244C27.5438 42.3481 26.4319 42.5604 25.3108 42.5489C24.1898 42.5595 23.0779 42.3466 22.04 41.9227C21.0022 41.4988 20.0592 40.8723 19.2661 40.0799C18.4731 39.2874 17.8459 38.3449 17.4211 37.3074C16.9963 36.2698 16.7826 35.1581 16.7923 34.037ZM31.0516 34.037C31.0809 33.2652 30.9541 32.4955 30.6788 31.774C30.4034 31.0525 29.9851 30.394 29.4489 29.8381C28.9128 29.2822 28.27 28.8404 27.5588 28.5391C26.8477 28.2377 26.0831 28.0832 25.3108 28.0846C24.538 28.0823 23.7726 28.2362 23.0608 28.5371C22.3489 28.8381 21.7052 29.2798 21.1684 29.8357C20.6316 30.3918 20.2127 31.0505 19.9369 31.7725C19.6611 32.4944 19.534 33.2647 19.5635 34.037C19.535 34.8091 19.6626 35.5789 19.9388 36.3005C20.2149 37.0221 20.6338 37.6805 21.1705 38.2362C21.7071 38.792 22.3504 39.2338 23.0619 39.535C23.7733 39.8363 24.5383 39.9908 25.3108 39.9894C26.0829 39.9899 26.8471 39.8347 27.5577 39.5331C28.2684 39.2315 28.9109 38.7895 29.4469 38.2338C29.9828 37.6781 30.4012 37.0201 30.6769 36.299C30.9526 35.5778 31.08 34.8085 31.0516 34.037Z" fill="#101010"/>
<path d="M34.3518 25.7037H37.1429L40.4498 35.2937L44.5834 25.5186L48.7103 35.2937L52.0172 25.7037H54.8347L49.0873 42.5424L44.6098 31.7553L40.1257 42.5424L34.3518 25.7037Z" fill="#101010"/>
<path d="M61.2501 25.5186L69.385 42.3572H66.4881L64.7223 38.6667H57.758L56.0186 42.377H53.1085L61.2501 25.5186ZM58.9286 36.1667H63.5583L61.2633 31.2395L58.9286 36.1667Z" fill="#101010"/>
<path d="M71.2765 25.7036H76.5675C81.541 25.7036 85.291 29.3147 85.291 34.0303C85.291 38.7459 81.541 42.3571 76.5675 42.3571H71.2765V25.7036ZM76.5675 39.824C80.1522 39.824 82.5199 37.3108 82.5199 34.0303C82.5199 30.7499 80.1455 28.2367 76.5675 28.2367H74.008V39.824H76.5675Z" fill="#101010"/>
<path d="M93.373 25.5186L101.541 42.3572H98.6111L96.8386 38.6667H89.8743L88.1415 42.377H85.2314L93.373 25.5186ZM91.0516 36.1667H95.6812L93.3862 31.2395L91.0516 36.1667Z" fill="#101010"/>
<path d="M104.98 35.3596L98.8557 25.7234H102.05L106.336 32.5951L110.628 25.7234H113.842L107.698 35.3596V42.3768H104.98V35.3596Z" fill="#101010"/>
<path d="M114.107 39.705L116.171 37.9722C116.567 38.5494 117.09 39.0282 117.7 39.3721C118.31 39.7161 118.99 39.9159 119.689 39.9563C121.303 39.9563 122.242 39.2288 122.242 38.0317C122.242 36.8346 121.468 36.0476 119.828 35.3333L118.505 34.7711C115.999 33.6733 114.755 32.0793 114.755 29.9166C114.755 27.2711 117.169 25.5119 119.702 25.5119C120.591 25.4764 121.476 25.6486 122.286 26.0148C123.097 26.3811 123.811 26.9313 124.372 27.6217L122.493 29.5661C122.183 29.1073 121.764 28.7324 121.274 28.475C120.783 28.2176 120.237 28.0858 119.683 28.0913C118.552 28.0913 117.474 28.7526 117.474 29.8968C117.474 31.041 118.228 31.7487 119.888 32.4497L121.21 33.0383C123.485 34.0238 125.033 35.4788 125.033 37.8002C125.033 40.6111 122.95 42.5357 119.742 42.5357C118.638 42.5903 117.54 42.3583 116.552 41.8622C115.564 41.3662 114.722 40.623 114.107 39.705Z" fill="#101010"/>
</svg>
