<svg width="135" height="135" viewBox="0 0 135 135" fill="none" xmlns="http://www.w3.org/2000/svg">
<path d="M16.2711 81.4675L15.6785 79.1639L9.64136 80.6589L0 77.5059L0.697134 80.2444L7.54996 82.412L2.56545 87.5356L3.26956 90.2537L10.2479 82.976L16.2711 81.4675ZM22.9287 97.0353C22.8521 96.0772 22.5244 95.1598 21.9876 94.3648C20.5236 91.9457 18.1046 91.239 15.9574 92.5165C14.1867 93.5561 13.7893 95.3773 14.0751 97.5313L14.2146 98.7681C14.4376 100.297 14.1797 101.214 13.3641 101.704C13.1549 101.805 12.9179 101.867 12.6809 101.88C12.4438 101.894 12.2068 101.86 11.9837 101.778C11.7607 101.697 11.5585 101.574 11.3842 101.418C11.2099 101.262 11.0705 101.065 10.9729 100.854C10.7149 100.44 10.5686 99.9708 10.5407 99.4815C10.5128 98.9991 10.6104 98.5098 10.8195 98.0682L8.48412 97.5381C8.21224 98.272 8.11464 99.0535 8.20527 99.8281C8.2959 100.603 8.56778 101.343 8.99303 101.996C9.244 102.478 9.59256 102.9 10.0108 103.253C10.4291 103.599 10.9171 103.864 11.44 104.028C11.9628 104.191 12.5136 104.245 13.0573 104.197C13.6011 104.15 14.1309 103.994 14.6189 103.742C16.2781 102.77 16.9194 101.119 16.6266 98.7273L16.4524 97.4906C16.299 95.9209 16.5569 95.0035 17.4562 94.4599C18.3625 93.9163 19.3385 94.3036 20.0775 95.5132C20.3703 96.0568 20.5236 96.6615 20.5445 97.2731C20.5585 97.8915 20.433 98.4962 20.1681 99.0535L22.4268 99.8281C22.8242 98.9515 22.9915 97.9934 22.9148 97.0421M26.1286 114.397L27.4671 109.824L30.5484 112.522L26.1286 114.397ZM38.0984 111.794L36.1255 110.123L32.8002 111.563L28.1503 107.541L29.1611 104.089L27.1882 102.403L22.7754 118.209L38.1053 111.794H38.0984ZM50.7026 117.502L42.6297 114.132L41.7095 116.293L47.5585 118.732L46.0108 122.354L41.3191 120.377L40.4059 122.497L45.1046 124.474L43.6476 127.885L37.7986 125.446L36.8784 127.607L44.9442 130.964L50.7026 117.502ZM77.4516 119.527L75.0395 119.724L75.6112 126.581L68.4655 120.248L65.3493 120.499L72.8087 127.131L67.1758 134.993L70.0411 134.762L75.6321 126.954L76.2386 134.273L78.6507 134.083L77.4446 119.527H77.4516ZM84.3811 117.74L90.6414 131.147L92.8304 130.182L88.9055 121.722L102.102 126.159L95.842 112.759L93.646 113.724L97.5709 122.184L84.3881 117.747L84.3811 117.74ZM103.503 106.664L101.67 108.22L111.297 119.262L113.131 117.713L103.497 106.664H103.503ZM119.893 100.351L123.309 102.709L122.082 104.442C121.12 105.787 119.963 105.971 118.931 105.257C117.906 104.551 117.662 103.43 118.659 102.084L119.886 100.345L119.893 100.351ZM109.666 100.372L108.007 102.716L116.052 102.601C115.745 103.45 115.724 104.367 116.01 105.223C116.289 106.08 116.854 106.82 117.607 107.323C119.642 108.723 122.215 108.152 123.79 105.917L126.523 102.016L114.4 93.6581L113.019 95.6083L118.178 99.169L117.376 100.304L109.659 100.385L109.666 100.372ZM122.284 79.1707L132.184 81.9296L131.57 84.0904C131.417 84.7564 131.124 85.3883 130.713 85.9387C130.301 86.4892 129.778 86.9512 129.179 87.291C128.579 87.6307 127.91 87.8482 127.22 87.9229C126.53 87.9977 125.833 87.9297 125.17 87.7259C124.501 87.556 123.867 87.2502 123.323 86.8289C122.779 86.4076 122.326 85.8776 121.991 85.2796C121.664 84.6748 121.462 84.0157 121.406 83.3294C121.35 82.6499 121.434 81.9568 121.664 81.3112L122.277 79.1639L122.284 79.1707ZM120.778 76.2624L119.496 80.7132C119.182 81.651 119.064 82.6431 119.147 83.6284C119.231 84.6137 119.517 85.5718 119.984 86.4416C120.451 87.3114 121.092 88.086 121.873 88.7112C122.647 89.3363 123.546 89.7984 124.508 90.0702C125.47 90.3352 126.481 90.4032 127.471 90.2741C128.461 90.145 129.416 89.8188 130.28 89.3159C131.138 88.8131 131.891 88.1472 132.483 87.3521C133.076 86.5571 133.501 85.6533 133.731 84.6884L135 80.2376L120.778 76.2624ZM116.728 44.8346C116.651 45.7996 116.826 46.7645 117.23 47.6343C118.297 50.2436 120.583 51.3512 122.898 50.3795C124.808 49.6185 125.526 47.8789 125.54 45.7044V44.4609C125.575 42.8844 125.965 42.0146 126.851 41.6545C127.074 41.5865 127.311 41.5662 127.548 41.5865C127.785 41.6069 128.008 41.6817 128.217 41.7904C128.426 41.8991 128.607 42.0554 128.754 42.2321C128.9 42.4156 129.005 42.6194 129.074 42.8437C129.27 43.2921 129.339 43.7814 129.29 44.2639C129.242 44.7463 129.074 45.2152 128.802 45.6229L131.026 46.5063C131.41 45.82 131.626 45.0589 131.661 44.2842C131.696 43.5028 131.535 42.7281 131.215 42.0146C131.04 41.505 130.761 41.0293 130.406 40.6216C130.043 40.2139 129.604 39.881 129.116 39.6431C128.628 39.4053 128.091 39.2626 127.541 39.2286C126.997 39.1946 126.446 39.2694 125.93 39.4461C124.201 40.1799 123.26 41.6817 123.191 44.094V45.3443C123.135 46.9072 122.758 47.8109 121.768 48.1983C120.785 48.5856 119.879 48.0692 119.335 46.7441C119.133 46.1597 119.07 45.5413 119.154 44.9366C119.238 44.325 119.454 43.7474 119.802 43.231L117.683 42.1234C117.139 42.9252 116.812 43.8493 116.735 44.8143M108.823 33.5207L110.328 35.3893L115.194 31.5569L125.282 30.4968L123.511 28.2952L116.359 29.1038L118.75 22.4105L116.986 20.2293L113.689 29.6882L108.823 33.5207ZM104.005 16.057L103.176 20.7525L99.8087 18.4353L104.005 16.057ZM92.433 19.9779L94.5453 21.4252L97.6894 19.6381L102.765 23.1308L102.144 26.6643L104.277 28.1321L106.906 11.9527L92.426 19.9779H92.433ZM79.8149 13.5224L82.6313 3.74415L84.8203 4.36251C85.5035 4.512 86.1449 4.7974 86.7095 5.20511C87.2742 5.61282 87.7483 6.12926 88.0968 6.72724C88.4454 7.32521 88.6615 7.99114 88.7382 8.67745C88.8149 9.36377 88.7382 10.0569 88.529 10.716C88.3548 11.3751 88.048 12.0003 87.6228 12.5371C87.1975 13.0739 86.6607 13.5224 86.0542 13.8486C85.4408 14.1748 84.7715 14.3718 84.0813 14.4262C83.3912 14.4805 82.694 14.399 82.0387 14.1816L79.8218 13.5224H79.8149ZM76.9008 15.0445L81.4183 16.3085C82.3664 16.621 83.3703 16.7365 84.3672 16.655C85.3641 16.5735 86.3331 16.2949 87.2184 15.8328C88.1038 15.3707 88.8846 14.7388 89.519 13.9777C90.1534 13.2098 90.6205 12.3265 90.8923 11.3819C91.1642 10.4306 91.2339 9.43852 91.1084 8.45321C90.983 7.47471 90.6553 6.53018 90.1464 5.68078C89.6375 4.83138 88.9613 4.0907 88.1596 3.49952C87.3579 2.90834 86.4376 2.48704 85.4686 2.2628L80.9512 0.998893L76.9008 15.0445ZM63.2579 5.00805L65.5933 9.16671L61.5081 9.4589L63.2579 5.00126V5.00805ZM56.7467 15.2348L59.3261 15.0513L60.6297 11.7081L66.7994 11.2664L68.5701 14.399L71.1704 14.2291L62.9024 0L56.7467 15.2348ZM42.5879 20.9835L42.33 10.7432L49.859 17.7898L48.4508 2.24921L46.1642 3.21412L46.9589 12.0275L40.0504 5.66039L40.2177 14.9698L34.1038 8.44642L31.8311 9.41133L42.5809 20.9767L42.5879 20.9835ZM28.8544 23.5725C29.1402 24.1841 29.3005 24.85 29.3215 25.5227C29.3424 26.1954 29.2308 26.8682 28.9799 27.5001C28.7359 28.1321 28.3664 28.7029 27.8854 29.1921C27.4043 29.6746 26.8327 30.0619 26.2053 30.3201C25.5709 30.5783 24.8947 30.7142 24.2115 30.7075C23.5283 30.7075 22.8521 30.5648 22.2246 30.2997C21.5972 30.0347 21.0256 29.6406 20.5515 29.1581C20.0426 28.7029 19.6383 28.1525 19.3455 27.5409C19.0596 26.9293 18.8993 26.2634 18.8784 25.5907C18.8575 24.918 18.976 24.2452 19.22 23.6133C19.464 22.9813 19.8404 22.4105 20.3145 21.9281C20.7955 21.4456 21.3672 21.0583 21.9946 20.8001C22.629 20.5351 23.3052 20.4059 23.9884 20.4059C24.6716 20.4059 25.3478 20.5486 25.9822 20.8137C26.6096 21.0787 27.1813 21.4728 27.6553 21.962C28.1572 22.4173 28.5686 22.9677 28.8544 23.5793M21.3114 32.5354C22.2386 32.9023 23.2215 33.079 24.2184 33.0654C25.2153 33.0518 26.1983 32.8411 27.1115 32.447C28.0248 32.0529 28.8474 31.4889 29.5376 30.7754C30.2347 30.0755 30.7854 29.2465 31.1619 28.3291C31.5314 27.4186 31.7126 26.4401 31.6987 25.4548C31.6847 24.4695 31.4686 23.4978 31.0643 22.6008C30.6669 21.697 30.0883 20.8884 29.3633 20.2089C28.6522 19.5158 27.8156 18.9722 26.8885 18.6052C25.9613 18.2383 24.9783 18.0548 23.9814 18.0752C22.9845 18.0888 22.0016 18.3062 21.0953 18.7004C20.182 19.0945 19.3594 19.6653 18.6762 20.3856C17.9791 21.0855 17.4284 21.9145 17.0589 22.825C16.6894 23.7356 16.5081 24.7141 16.5221 25.6926C16.536 26.6779 16.7521 27.6428 17.1495 28.5466C17.5469 29.4435 18.1255 30.259 18.8435 30.9385C19.5546 31.6248 20.3981 32.1684 21.3184 32.5354M8.25407 46.9615L16.9682 50.5358L16.0341 52.7442L2.30054 47.0363L15.0511 41.471L6.34392 37.8968L7.26414 35.6883L21.0674 41.3759L8.2471 46.9615H8.25407Z" fill="#E7B78A"/>
</svg>
