<svg width="22" height="20" viewBox="0 0 22 20" fill="none" xmlns="http://www.w3.org/2000/svg">
<path d="M10.546 1.17809C10.7247 0.790653 11.2753 0.790649 11.454 1.17809L13.6972 6.04119C13.9157 6.5149 14.3646 6.84107 14.8826 6.90249L20.2009 7.53305C20.6246 7.58329 20.7947 8.10699 20.4815 8.39667L16.5496 12.0328C16.1666 12.387 15.9951 12.9147 16.0968 13.4264L17.1405 18.6792C17.2236 19.0977 16.7782 19.4214 16.4059 19.213L11.7327 16.5971C11.2775 16.3423 10.7225 16.3423 10.2673 16.5971L5.59414 19.213C5.22184 19.4214 4.77636 19.0977 4.85951 18.6792L5.90324 13.4264C6.0049 12.9147 5.83343 12.387 5.45043 12.0328L1.5185 8.39667C1.20525 8.10698 1.37541 7.58329 1.79911 7.53306L7.11736 6.90249C7.63541 6.84107 8.08434 6.5149 8.30284 6.04119L10.546 1.17809Z" fill="#E7B78A" stroke="#2D2926"/>
</svg>
