<svg width="21" height="20" viewBox="0 0 21 20" fill="none" xmlns="http://www.w3.org/2000/svg">
<path d="M10.046 1.17809C10.2247 0.790653 10.7753 0.790649 10.954 1.17809L13.1972 6.04119C13.4157 6.5149 13.8646 6.84107 14.3826 6.90249L19.7009 7.53305C20.1246 7.58329 20.2947 8.10699 19.9815 8.39667L16.0496 12.0328C15.6666 12.387 15.4951 12.9147 15.5968 13.4264L16.6405 18.6792C16.7236 19.0977 16.2782 19.4214 15.9059 19.213L11.2327 16.5971C10.7775 16.3423 10.2225 16.3423 9.76734 16.5971L5.09414 19.213C4.72184 19.4214 4.27636 19.0977 4.35951 18.6792L5.40324 13.4264C5.5049 12.9147 5.33343 12.387 4.95043 12.0328L1.0185 8.39667C0.705254 8.10698 0.87541 7.58329 1.29911 7.53306L6.61736 6.90249C7.13541 6.84107 7.58434 6.5149 7.80284 6.04119L10.046 1.17809Z" fill="#E7B78A" stroke="#2D2926"/>
</svg>
